<?xml version="1.0" encoding="UTF-8"?>
<svg xmlns="http://www.w3.org/2000/svg" xmlns:xlink="http://www.w3.org/1999/xlink" width="48pt" height="48pt" viewBox="0 0 48 48" version="1.1">
<g id="surface1">
<path style=" stroke:none;fill-rule:nonzero;fill:rgb(0%,0%,0%);fill-opacity:1;" d="M 0 0 L 0 48 L 48 48 L 48 0 Z M 20.394531 34.457031 L 15.957031 25.308594 L 11.675781 34.433594 L 7.5 34.433594 L 13.640625 22.734375 L 7.703125 10.902344 L 12.035156 10.902344 L 16.238281 19.894531 L 20.410156 10.882812 L 24.476562 10.882812 L 18.53125 22.363281 L 24.824219 34.457031 Z M 39.421875 33.496094 C 37.589844 34.367188 35.667969 34.761719 33.832031 34.761719 C 29.097656 34.78125 25.714844 31.859375 25.714844 25.921875 C 25.867188 19.839844 29.921875 16.445312 35.601562 16.90625 L 35.601562 10.902344 L 39.488281 10.902344 L 39.488281 31.117188 C 39.496094 33.527344 39.761719 33.292969 39.421875 33.496094 Z M 35.601562 20.332031 L 35.601562 31.136719 C 31.765625 32.132812 29.644531 29.800781 29.664062 25.746094 C 29.679688 21.589844 32.410156 19.433594 35.601562 20.332031 Z M 35.601562 20.332031 "/>
</g>
</svg>
