<?xml version="1.0" encoding="UTF-8"?>
<svg xmlns="http://www.w3.org/2000/svg" xmlns:xlink="http://www.w3.org/1999/xlink" width="48pt" height="48pt" viewBox="0 0 48 48" version="1.1">
<g id="surface1">
<path style=" stroke:none;fill-rule:evenodd;fill:rgb(0%,0%,0%);fill-opacity:1;" d="M 48 48 L 0 48 L 0 0 L 48 0 Z M 38.101562 20.34375 L 38.101562 16.621094 C 37.488281 16.347656 33.976562 15.34375 31.203125 16.402344 C 27.207031 17.929688 27.351562 22.519531 28.867188 24.324219 C 30.832031 26.660156 35.71875 27.53125 34.917969 29.820312 C 34.503906 31.007812 32.570312 31.214844 30.867188 30.816406 C 29.28125 30.445312 27.898438 29.503906 27.898438 29.503906 L 27.898438 33.449219 C 27.898438 33.449219 29.265625 34.207031 30.9375 34.390625 C 33.085938 34.621094 35.773438 34.183594 37.121094 32.984375 C 39.519531 30.851562 39.890625 26.128906 35.34375 23.933594 C 31.558594 22.109375 31.621094 21.589844 31.648438 20.652344 C 31.683594 19.398438 34.316406 18.625 38.101562 20.34375 Z M 17.699219 9.898438 C 20.847656 10.007812 25.472656 11.457031 25.472656 17.644531 C 25.472656 23.832031 19.8125 25.859375 14.648438 25.417969 L 14.648438 34.175781 L 10.800781 34.175781 L 10.800781 9.980469 C 10.800781 9.980469 14.550781 9.789062 17.699219 9.898438 Z M 18.699219 21.585938 C 20.355469 20.980469 21.433594 19.679688 21.433594 17.65625 C 21.433594 15.515625 20.339844 14.0625 18.660156 13.652344 C 16.84375 13.210938 14.648438 13.472656 14.648438 13.472656 L 14.648438 21.914062 C 14.648438 21.914062 17.683594 21.957031 18.699219 21.585938 Z M 18.699219 21.585938 "/>
</g>
</svg>
